0, 0, Header, 0, 1, 384
1, 0, Start_track
1, 0, Channel_prefix, 0
1, 0, Title_t, "iRobot Single Voice Culex"
1, 0, Program_c, 0, 81
1, 0, Sequencer_specific, 52, 5, 15, 18, 3, 3, 127, 127, 0, 255, 1, 4, 40, 83, 112, 101, 97, 107, 101, 114, 115, 32, 40, 82, 101, 97, 108, 116, 101, 107, 32, 72, 105, 103, 104, 32, 68, 101, 102, 105, 110, 105, 116, 105, 111, 110, 32, 65, 117, 100, 105, 111, 41
1, 0, Sequencer_specific, 15, 5, 15, 28, 50, 48, 49, 53, 46, 48, 50, 46, 48, 49, 1, 3
1, 0, Sequencer_specific, 44, 5, 15, 45, 77, 105, 99, 114, 111, 115, 111, 102, 116, 32, 83, 97, 110, 115, 32, 83, 101, 114, 105, 102, 44, 56, 46, 50, 53, 44, 70, 97, 108, 115, 101, 44, 70, 97, 108, 115, 101, 44, 49, 44, 48
1, 0, Time_signature, 4, 2, 96, 8
1, 0, Sequencer_specific, 3, 0, 0, 65
1, 0, Tempo, 352941
1, 0, Note_on_c, 0, 36, 64
1, 192, Note_off_c, 0, 36, 0
1, 192, Note_on_c, 0, 48, 64
1, 384, Note_off_c, 0, 48, 0
1, 384, Note_on_c, 0, 47, 64
1, 576, Note_off_c, 0, 47, 0
1, 576, Note_on_c, 0, 48, 64
1, 768, Note_off_c, 0, 48, 0
1, 768, Note_on_c, 0, 39, 64
1, 960, Note_off_c, 0, 39, 0
1, 960, Note_on_c, 0, 48, 64
1, 1152, Note_off_c, 0, 48, 0
1, 1152, Note_on_c, 0, 38, 64
1, 1344, Note_off_c, 0, 38, 0
1, 1344, Note_on_c, 0, 48, 64
1, 1536, Note_off_c, 0, 48, 0
1, 1536, Note_on_c, 0, 36, 64
1, 1728, Note_off_c, 0, 36, 0
1, 1728, Note_on_c, 0, 48, 64
1, 1920, Note_off_c, 0, 48, 0
1, 1920, Note_on_c, 0, 47, 64
1, 2112, Note_off_c, 0, 47, 0
1, 2112, Note_on_c, 0, 48, 64
1, 2304, Note_off_c, 0, 48, 0
1, 2304, Note_on_c, 0, 43, 64
1, 2352, Note_off_c, 0, 43, 0
1, 2352, Note_on_c, 0, 45, 64
1, 2400, Note_off_c, 0, 45, 0
1, 2400, Note_on_c, 0, 46, 64
1, 2448, Note_off_c, 0, 46, 0
1, 2448, Note_on_c, 0, 48, 64
1, 2496, Note_off_c, 0, 48, 0
1, 2496, Note_on_c, 0, 50, 64
1, 2544, Note_off_c, 0, 50, 0
1, 2544, Note_on_c, 0, 52, 64
1, 2592, Note_off_c, 0, 52, 0
1, 2592, Note_on_c, 0, 53, 64
1, 2640, Note_off_c, 0, 53, 0
1, 2640, Note_on_c, 0, 54, 64
1, 2688, Note_off_c, 0, 54, 0
1, 2688, Note_on_c, 0, 55, 64
1, 2736, Note_off_c, 0, 55, 0
1, 2736, Note_on_c, 0, 57, 64
1, 2784, Note_off_c, 0, 57, 0
1, 2784, Note_on_c, 0, 58, 64
1, 2832, Note_off_c, 0, 58, 0
1, 2832, Note_on_c, 0, 60, 64
1, 2880, Note_off_c, 0, 60, 0
1, 2880, Note_on_c, 0, 62, 64
1, 2928, Note_off_c, 0, 62, 0
1, 2928, Note_on_c, 0, 64, 64
1, 2976, Note_off_c, 0, 64, 0
1, 2976, Note_on_c, 0, 65, 64
1, 3024, Note_off_c, 0, 65, 0
1, 3024, Note_on_c, 0, 66, 64
1, 3072, Note_off_c, 0, 66, 0
1, 3072, Note_on_c, 0, 67, 100
1, 3456, Note_off_c, 0, 67, 64
1, 3456, Note_on_c, 0, 79, 100
1, 3840, Note_off_c, 0, 79, 64
1, 3840, Note_on_c, 0, 78, 100
1, 4608, Note_off_c, 0, 78, 0
1, 4608, Note_on_c, 0, 36, 64
1, 4800, Note_off_c, 0, 36, 0
1, 4800, Note_on_c, 0, 48, 64
1, 4992, Note_off_c, 0, 48, 0
1, 4992, Note_on_c, 0, 74, 100
1, 5184, Note_off_c, 0, 74, 64
1, 5184, Note_on_c, 0, 75, 100
1, 5376, Note_off_c, 0, 75, 64
1, 5376, Note_on_c, 0, 77, 100
1, 5760, Note_off_c, 0, 77, 64
1, 5760, Note_on_c, 0, 75, 100
1, 5952, Note_off_c, 0, 75, 64
1, 5952, Note_on_c, 0, 74, 100
1, 6144, Note_off_c, 0, 74, 64
1, 6144, Note_on_c, 0, 75, 100
1, 6144, Note_on_c, 0, 36, 64
1, 6336, Note_off_c, 0, 75, 64
1, 6336, Note_off_c, 0, 36, 0
1, 6336, Note_on_c, 0, 72, 100
1, 7104, Note_off_c, 0, 72, 0
1, 7104, Note_on_c, 0, 48, 64
1, 7296, Note_off_c, 0, 48, 0
1, 7296, Note_on_c, 0, 38, 64
1, 7488, Note_off_c, 0, 38, 0
1, 7488, Note_on_c, 0, 48, 64
1, 7680, Note_off_c, 0, 48, 0
1, 7680, Note_on_c, 0, 72, 100
1, 8064, Note_off_c, 0, 72, 64
1, 8064, Note_on_c, 0, 74, 100
1, 8448, Note_off_c, 0, 74, 64
1, 8448, Note_on_c, 0, 75, 100
1, 8832, Note_off_c, 0, 75, 64
1, 8832, Note_on_c, 0, 82, 100
1, 9216, Note_off_c, 0, 82, 0
1, 9216, Note_on_c, 0, 82, 64
1, 9984, Note_off_c, 0, 82, 0
1, 9984, Note_on_c, 0, 39, 64
1, 10176, Note_off_c, 0, 39, 0
1, 10176, Note_on_c, 0, 48, 64
1, 10368, Note_off_c, 0, 48, 0
1, 10368, Note_on_c, 0, 38, 64
1, 10560, Note_off_c, 0, 38, 0
1, 10560, Note_on_c, 0, 48, 64
1, 10752, Note_off_c, 0, 48, 0
1, 10752, Note_on_c, 0, 81, 64
1, 11520, Note_off_c, 0, 81, 0
1, 11520, Note_on_c, 0, 39, 64
1, 11712, Note_off_c, 0, 39, 0
1, 11712, Note_on_c, 0, 48, 64
1, 11904, Note_off_c, 0, 48, 0
1, 11904, Note_on_c, 0, 38, 64
1, 12096, Note_off_c, 0, 38, 0
1, 12096, Note_on_c, 0, 48, 64
1, 12288, Note_off_c, 0, 48, 0
1, 12288, Note_on_c, 0, 81, 64
1, 13056, Note_off_c, 0, 81, 0
1, 13056, Note_on_c, 0, 39, 64
1, 13248, Note_off_c, 0, 39, 0
1, 13248, Note_on_c, 0, 48, 64
1, 13440, Note_off_c, 0, 48, 0
1, 13440, Note_on_c, 0, 38, 64
1, 13632, Note_off_c, 0, 38, 0
1, 13632, Note_on_c, 0, 48, 64
1, 13824, Note_off_c, 0, 48, 0
1, 13824, Note_on_c, 0, 80, 64
1, 14784, Note_off_c, 0, 80, 0
1, 14784, Note_on_c, 0, 78, 100
1, 14976, Note_off_c, 0, 78, 64
1, 14976, Note_on_c, 0, 79, 100
1, 15168, Note_off_c, 0, 79, 64
1, 15168, Note_on_c, 0, 75, 100
1, 15360, Note_off_c, 0, 75, 64
1, 15360, Note_on_c, 0, 74, 100
1, 15552, Note_off_c, 0, 74, 64
1, 15552, Note_on_c, 0, 72, 100
1, 15744, Note_off_c, 0, 72, 64
1, 15744, Note_on_c, 0, 47, 64
1, 15936, Note_off_c, 0, 47, 0
1, 15936, Note_on_c, 0, 48, 64
1, 16128, Note_off_c, 0, 48, 0
1, 16128, Note_on_c, 0, 39, 64
1, 16320, Note_off_c, 0, 39, 0
1, 16320, Note_on_c, 0, 48, 64
1, 16512, Note_off_c, 0, 48, 0
1, 16512, Note_on_c, 0, 38, 64
1, 16704, Note_off_c, 0, 38, 0
1, 16704, Note_on_c, 0, 48, 64
1, 16896, Note_off_c, 0, 48, 0
1, 16896, Note_on_c, 0, 36, 64
1, 17088, Note_off_c, 0, 36, 0
1, 17088, Note_on_c, 0, 48, 64
1, 17280, Note_off_c, 0, 48, 0
1, 17280, Note_on_c, 0, 47, 64
1, 17472, Note_off_c, 0, 47, 0
1, 17472, Note_on_c, 0, 48, 64
1, 17664, Note_off_c, 0, 48, 0
1, 17664, Note_on_c, 0, 39, 64
1, 17856, Note_off_c, 0, 39, 0
1, 17856, Note_on_c, 0, 66, 100
1, 18048, Note_off_c, 0, 66, 64
1, 18048, Note_on_c, 0, 67, 100
1, 18240, Note_off_c, 0, 67, 64
1, 18240, Note_on_c, 0, 63, 100
1, 18432, Note_off_c, 0, 63, 64
1, 18432, Note_on_c, 0, 60, 64
1, 18624, Note_off_c, 0, 60, 0
1, 18624, Note_on_c, 0, 48, 64
1, 18816, Note_off_c, 0, 48, 0
1, 18816, Note_on_c, 0, 59, 64
1, 19008, Note_off_c, 0, 59, 0
1, 19008, Note_on_c, 0, 60, 64
1, 19200, Note_off_c, 0, 60, 0
1, 19200, Note_on_c, 0, 62, 64
1, 19392, Note_off_c, 0, 62, 0
1, 19392, Note_on_c, 0, 50, 64
1, 19584, Note_off_c, 0, 50, 0
1, 19584, Note_on_c, 0, 60, 64
1, 19776, Note_off_c, 0, 60, 0
1, 19776, Note_on_c, 0, 62, 64
1, 19968, Note_off_c, 0, 62, 0
1, 19968, Note_on_c, 0, 63, 64
1, 20160, Note_off_c, 0, 63, 0
1, 20160, Note_on_c, 0, 51, 64
1, 20352, Note_off_c, 0, 51, 0
1, 20352, Note_on_c, 0, 62, 64
1, 20544, Note_off_c, 0, 62, 0
1, 20544, Note_on_c, 0, 63, 64
1, 20736, Note_off_c, 0, 63, 0
1, 20736, Note_on_c, 0, 43, 64
1, 20784, Note_off_c, 0, 43, 0
1, 20784, Note_on_c, 0, 45, 64
1, 20832, Note_off_c, 0, 45, 0
1, 20832, Note_on_c, 0, 46, 64
1, 20880, Note_off_c, 0, 46, 0
1, 20880, Note_on_c, 0, 48, 64
1, 20928, Note_off_c, 0, 48, 0
1, 20928, Note_on_c, 0, 50, 64
1, 20976, Note_off_c, 0, 50, 0
1, 20976, Note_on_c, 0, 52, 64
1, 21024, Note_off_c, 0, 52, 0
1, 21024, Note_on_c, 0, 53, 64
1, 21072, Note_off_c, 0, 53, 0
1, 21072, Note_on_c, 0, 54, 64
1, 21120, Note_off_c, 0, 54, 0
1, 21120, Note_on_c, 0, 55, 64
1, 21168, Note_off_c, 0, 55, 0
1, 21168, Note_on_c, 0, 57, 64
1, 21216, Note_off_c, 0, 57, 0
1, 21216, Note_on_c, 0, 58, 64
1, 21264, Note_off_c, 0, 58, 0
1, 21264, Note_on_c, 0, 60, 64
1, 21312, Note_off_c, 0, 60, 0
1, 21312, Note_on_c, 0, 62, 64
1, 21360, Note_off_c, 0, 62, 0
1, 21360, Note_on_c, 0, 64, 64
1, 21408, Note_off_c, 0, 64, 0
1, 21408, Note_on_c, 0, 65, 64
1, 21456, Note_off_c, 0, 65, 0
1, 21456, Note_on_c, 0, 66, 64
1, 21504, Note_off_c, 0, 66, 0
1, 21504, Note_on_c, 0, 77, 100
1, 21888, Note_off_c, 0, 77, 64
1, 21888, Note_on_c, 0, 80, 100
1, 22272, Note_off_c, 0, 80, 64
1, 22272, Note_on_c, 0, 79, 100
1, 22656, Note_off_c, 0, 79, 64
1, 22656, Note_on_c, 0, 80, 100
1, 23040, Note_off_c, 0, 80, 64
1, 23040, Note_on_c, 0, 84, 100
1, 23232, Note_off_c, 0, 84, 64
1, 23232, Note_on_c, 0, 80, 100
1, 23424, Note_off_c, 0, 80, 64
1, 23424, Note_on_c, 0, 79, 100
1, 23616, Note_off_c, 0, 79, 64
1, 23616, Note_on_c, 0, 80, 100
1, 23808, Note_off_c, 0, 80, 64
1, 23808, Note_on_c, 0, 79, 100
1, 24192, Note_off_c, 0, 79, 64
1, 24192, Note_on_c, 0, 77, 100
1, 24576, Note_off_c, 0, 77, 64
1, 24576, Note_on_c, 0, 70, 100
1, 24768, Note_off_c, 0, 70, 64
1, 24768, Note_on_c, 0, 72, 100
1, 24960, Note_off_c, 0, 72, 64
1, 24960, Note_on_c, 0, 73, 100
1, 25728, Note_off_c, 0, 73, 64
1, 25728, Note_on_c, 0, 73, 100
1, 25920, Note_off_c, 0, 73, 64
1, 25920, Note_on_c, 0, 75, 100
1, 26112, Note_off_c, 0, 75, 64
1, 26112, Note_on_c, 0, 77, 100
1, 26688, Note_off_c, 0, 77, 64
1, 26688, Note_on_c, 0, 78, 100
1, 26880, Note_off_c, 0, 78, 64
1, 26880, Note_on_c, 0, 80, 100
1, 27072, Note_off_c, 0, 80, 64
1, 27072, Note_on_c, 0, 78, 100
1, 27264, Note_off_c, 0, 78, 64
1, 27264, Note_on_c, 0, 77, 100
1, 27456, Note_off_c, 0, 77, 64
1, 27456, Note_on_c, 0, 78, 100
1, 27648, Note_off_c, 0, 78, 64
1, 27648, Note_on_c, 0, 80, 100
1, 28032, Note_off_c, 0, 80, 64
1, 28032, Note_on_c, 0, 84, 64
1, 28800, Note_off_c, 0, 84, 0
1, 28800, Note_on_c, 0, 38, 64
1, 28992, Note_off_c, 0, 38, 0
1, 28992, Note_on_c, 0, 48, 64
1, 29184, Note_off_c, 0, 48, 0
1, 29184, Note_on_c, 0, 68, 64
1, 29568, Note_off_c, 0, 68, 0
1, 29568, Note_on_c, 0, 72, 64
1, 30336, Note_off_c, 0, 72, 0
1, 30336, Note_on_c, 0, 38, 64
1, 30528, Note_off_c, 0, 38, 0
1, 30528, Note_on_c, 0, 48, 64
1, 30720, Note_off_c, 0, 48, 0
1, 30720, Note_on_c, 0, 53, 64
1, 31104, Note_off_c, 0, 53, 0
1, 31104, Note_on_c, 0, 56, 64
1, 31872, Note_off_c, 0, 56, 0
1, 31872, Note_on_c, 0, 38, 64
1, 32064, Note_off_c, 0, 38, 0
1, 32064, Note_on_c, 0, 48, 64
1, 32256, Note_off_c, 0, 48, 0
1, 32256, Note_on_c, 0, 41, 64
1, 32640, Note_off_c, 0, 41, 0
1, 32640, Note_on_c, 0, 44, 64
1, 33408, Note_off_c, 0, 44, 0
1, 33408, Note_on_c, 0, 38, 64
1, 33600, Note_off_c, 0, 38, 0
1, 33600, Note_on_c, 0, 48, 64
1, 33792, Note_off_c, 0, 48, 0
1, 33792, Note_on_c, 0, 78, 64
1, 34176, Note_off_c, 0, 78, 0
1, 34176, Note_on_c, 0, 82, 64
1, 34560, Note_off_c, 0, 82, 0
1, 34560, Note_on_c, 0, 80, 64
1, 34944, Note_off_c, 0, 80, 0
1, 34944, Note_on_c, 0, 82, 64
1, 35328, Note_off_c, 0, 82, 0
1, 35328, Note_on_c, 0, 85, 64
1, 35520, Note_off_c, 0, 85, 0
1, 35520, Note_on_c, 0, 82, 64
1, 35712, Note_off_c, 0, 82, 0
1, 35712, Note_on_c, 0, 80, 64
1, 35904, Note_off_c, 0, 80, 0
1, 35904, Note_on_c, 0, 82, 64
1, 36096, Note_off_c, 0, 82, 0
1, 36096, Note_on_c, 0, 80, 64
1, 36480, Note_off_c, 0, 80, 0
1, 36480, Note_on_c, 0, 78, 64
1, 36864, Note_off_c, 0, 78, 0
1, 36864, Note_on_c, 0, 75, 64
1, 37248, Note_off_c, 0, 75, 0
1, 37248, Note_on_c, 0, 78, 64
1, 37632, Note_off_c, 0, 78, 0
1, 37632, Note_on_c, 0, 77, 64
1, 38016, Note_off_c, 0, 77, 0
1, 38016, Note_on_c, 0, 78, 64
1, 38400, Note_off_c, 0, 78, 0
1, 38400, Note_on_c, 0, 82, 64
1, 38592, Note_off_c, 0, 82, 0
1, 38592, Note_on_c, 0, 78, 64
1, 38784, Note_off_c, 0, 78, 0
1, 38784, Note_on_c, 0, 77, 64
1, 38976, Note_off_c, 0, 77, 0
1, 38976, Note_on_c, 0, 78, 64
1, 39168, Note_off_c, 0, 78, 0
1, 39168, Note_on_c, 0, 77, 64
1, 39552, Note_off_c, 0, 77, 0
1, 39552, Note_on_c, 0, 75, 64
1, 39936, Note_off_c, 0, 75, 0
1, 39936, Note_on_c, 0, 78, 64
1, 40128, Note_off_c, 0, 78, 0
1, 40128, Note_on_c, 0, 80, 64
1, 40320, Note_off_c, 0, 80, 0
1, 40320, Note_on_c, 0, 81, 64
1, 42240, Note_off_c, 0, 81, 0
1, 42240, Note_on_c, 0, 81, 64
1, 42624, Note_off_c, 0, 81, 0
1, 42624, Note_on_c, 0, 83, 64
1, 43008, Note_off_c, 0, 83, 0
1, 43008, Note_on_c, 0, 84, 64
1, 45312, Note_off_c, 0, 84, 0
1, 45312, Note_on_c, 0, 84, 64
1, 45696, Note_off_c, 0, 84, 0
1, 45696, Note_on_c, 0, 86, 64
1, 46080, Note_off_c, 0, 86, 0
1, 46080, Note_on_c, 0, 87, 64
1, 48384, Note_off_c, 0, 87, 0
1, 48384, Note_on_c, 0, 43, 64
1, 48432, Note_off_c, 0, 43, 0
1, 48432, Note_on_c, 0, 45, 64
1, 48480, Note_off_c, 0, 45, 0
1, 48480, Note_on_c, 0, 46, 64
1, 48528, Note_off_c, 0, 46, 0
1, 48528, Note_on_c, 0, 48, 64
1, 48576, Note_off_c, 0, 48, 0
1, 48576, Note_on_c, 0, 50, 64
1, 48624, Note_off_c, 0, 50, 0
1, 48624, Note_on_c, 0, 52, 64
1, 48672, Note_off_c, 0, 52, 0
1, 48672, Note_on_c, 0, 53, 64
1, 48720, Note_off_c, 0, 53, 0
1, 48720, Note_on_c, 0, 54, 64
1, 48768, Note_off_c, 0, 54, 0
1, 48768, Note_on_c, 0, 55, 64
1, 48816, Note_off_c, 0, 55, 0
1, 48816, Note_on_c, 0, 57, 64
1, 48864, Note_off_c, 0, 57, 0
1, 48864, Note_on_c, 0, 58, 64
1, 48912, Note_off_c, 0, 58, 0
1, 48912, Note_on_c, 0, 60, 64
1, 48960, Note_off_c, 0, 60, 0
1, 48960, Note_on_c, 0, 62, 64
1, 49008, Note_off_c, 0, 62, 0
1, 49008, Note_on_c, 0, 64, 64
1, 49056, Note_off_c, 0, 64, 0
1, 49056, Note_on_c, 0, 65, 64
1, 49104, Note_off_c, 0, 65, 0
1, 49104, Note_on_c, 0, 66, 64
1, 49152, Note_off_c, 0, 66, 0
1, 49152, Note_on_c, 0, 79, 100
1, 49344, Note_on_c, 0, 55, 64
1, 49408, Note_off_c, 0, 79, 64
1, 49536, Note_off_c, 0, 55, 0
1, 49536, Note_on_c, 0, 55, 64
1, 49728, Note_off_c, 0, 55, 0
1, 49728, Note_on_c, 0, 79, 100
1, 49920, Note_on_c, 0, 55, 64
1, 49984, Note_off_c, 0, 79, 64
1, 50112, Note_off_c, 0, 55, 0
1, 50112, Note_on_c, 0, 55, 64
1, 50304, Note_off_c, 0, 55, 0
1, 50304, Note_on_c, 0, 79, 100
1, 50496, Note_on_c, 0, 55, 64
1, 50560, Note_off_c, 0, 79, 64
1, 50688, Note_off_c, 0, 55, 0
1, 50688, Note_on_c, 0, 55, 64
1, 50880, Note_off_c, 0, 55, 0
1, 50880, Note_on_c, 0, 79, 100
1, 51072, Note_on_c, 0, 55, 64
1, 51136, Note_off_c, 0, 79, 64
1, 51264, Note_off_c, 0, 55, 0
1, 51264, Note_on_c, 0, 55, 64
1, 51456, Note_off_c, 0, 55, 0
1, 51456, Note_on_c, 0, 79, 100
1, 51648, Note_on_c, 0, 80, 64
1, 51712, Note_off_c, 0, 79, 64
1, 51840, Note_off_c, 0, 80, 0
1, 51840, Note_on_c, 0, 79, 100
1, 52096, Note_off_c, 0, 79, 64
1, 52096, End_track
0, 0, End_of_file
